#!OML:ASF F:\VICON\USERDATA\INSTALL\Justin_Nancy\Justin_Nancy.ASF
:FULLY-SPECIFIED
:DEGREES
139
root 0.875251 17.8348 -15.5884 7.40051 -1.95026 0.979893
lowerback 5.59482 -0.16302 -1.91976
upperback -0.109089 -0.267488 2.30868
thorax -3.23219 -0.0837009 3.48909
lowerneck -16.7114 -4.30325 -10.2068
upperneck 23.2744 -4.51396 5.1004
head 10.6026 -2.37425 2.89784
rclavicle 5.76476e-015 9.54166e-015
rhumerus -32.3335 -4.60811 -81.6548
rradius 42.1692
rwrist 0.92627
rhand -9.91807 12.3954
rfingers 7.12502
rthumb 16.0625 -16.9589
lclavicle 5.76476e-015 9.54166e-015
lhumerus -30.5481 4.57928 86.8747
lradius 34.4326
lwrist 0.913727
lhand -16.4378 22.5182
lfingers 7.12502
lthumb 9.77774 52.2712
rfemur -13.6158 4.4551 19.0876
rtibia 22.6971
rfoot -11.3963 -9.97891
rtoes 6.33345
lfemur -12.3608 -3.58234 -19.6985
ltibia 19.8157
lfoot -11.5919 5.36242
ltoes -2.07499
140
root 0.877782 17.8334 -15.5831 7.41484 -1.89995 1.04105
lowerback 5.53027 -0.212006 -1.97655
upperback -0.153902 -0.334487 2.34119
thorax -3.23683 -0.115237 3.56028
lowerneck -16.71 -4.29722 -10.2284
upperneck 23.4255 -4.47208 4.97945
head 10.6526 -2.37365 2.86544
rclavicle -4.47266e-015 -1.74931e-014
rhumerus -32.3896 -4.35076 -81.6766
rradius 42.3154
rwrist 0.834693
rhand -9.94485 12.312
rfingers 7.12502
rthumb 16.0368 -17.0443
lclavicle -4.47266e-015 -1.74931e-014
lhumerus -30.6229 5.35967 86.5046
lradius 35.2669
lwrist -2.83886
lhand -16.3285 20.3534
lfingers 7.12502
lthumb 9.88324 50.1014
rfemur -13.6709 4.42172 19.0126
rtibia 22.784
rfoot -11.4048 -10.0116
rtoes 6.06687
lfemur -12.3401 -3.71698 -19.7552
ltibia 19.8408
lfoot -11.7167 5.34996
ltoes -1.27503
141
root 0.878106 17.8272 -15.5816 7.40588 -1.96533 1.06243
lowerback 5.50687 -0.200107 -2.01519
upperback -0.122627 -0.32103 2.346
thorax -3.19215 -0.108998 3.58552
lowerneck -16.9693 -4.3001 -10.1546
upperneck 23.6604 -4.4412 4.85316
head 10.7818 -2.36791 2.81181
rclavicle -7.15625e-015 3.18055e-015
rhumerus -32.2666 -4.25188 -81.7291
rradius 42.449
rwrist 0.831277
rhand -9.75529 11.9565
rfingers 7.12502
rthumb 16.2193 -17.385
lclavicle -7.15625e-015 3.18055e-015
lhumerus -30.5782 5.65974 86.3775
lradius 35.6945
lwrist -4.30981
lhand -16.2829 20.0006
lfingers 7.12502
lthumb 9.92726 49.7465
rfemur -13.7073 4.41832 18.9791
rtibia 22.8434
rfoot -11.3617 -9.94335
rtoes 6.44258
lfemur -12.2981 -3.74601 -19.7783
ltibia 19.8524
lfoot -11.7762 5.3997
ltoes -0.713479
142
root 0.87843 17.8239 -15.5791 7.36776 -2.01262 1.01498
lowerback 5.53584 -0.149022 -1.92084
upperback -0.0558222 -0.248734 2.31199
thorax -3.14532 -0.0763569 3.49055
lowerneck -17.21 -4.33011 -10.0972
upperneck 23.7904 -4.47738 4.855
head 10.8778 -2.37749 2.79656
rclavicle 1.20265e-014 3.18055e-015
rhumerus -32.1099 -4.41894 -81.7665
rradius 42.528
rwrist 0.923339
rhand -9.81312 11.7619
rfingers 7.12502
rthumb 16.1636 -17.5842
lclavicle 1.20265e-014 3.18055e-015
lhumerus -30.4608 5.37237 86.4275
lradius 35.8593
lwrist -4.11537
lhand -14.7229 22.6101
lfingers 7.12502
lthumb 11.432 52.2784
rfemur -13.6752 4.44103 19.0277
rtibia 22.8825
rfoot -11.4612 -9.931
rtoes 6.55395
lfemur -12.2875 -3.69349 -19.7443
ltibia 19.8848
lfoot -11.7882 5.45459
ltoes -0.720585
143
root 0.876365 17.8259 -15.5772 7.3555 -1.95637 1.03971
lowerback 5.59383 -0.172321 -1.95872
upperback -0.0661511 -0.281989 2.33434
thorax -3.18587 -0.0913776 3.53865
lowerneck -17.1696 -4.31442 -10.1814
upperneck 23.7486 -4.44436 4.89401
head 10.855 -2.36535 2.82974
rclavicle -7.95139e-015 -2.62396e-014
rhumerus -31.9946 -4.33597 -81.7683
rradius 42.4691
rwrist 0.95378
rhand -9.99469 12.127
rfingers 7.12502
rthumb 15.9888 -17.2332
lclavicle -7.95139e-015 -2.62396e-014
lhumerus -30.4246 5.26616 86.5131
lradius 35.8229
lwrist -3.87468
lhand -11.1522 26.7738
lfingers 7.12502
lthumb 14.8738 56.2199
rfemur -13.6465 4.47358 19.0157
rtibia 22.9027
rfoot -11.5666 -10.0543
rtoes 6.43866
lfemur -12.3096 -3.6951 -19.7575
ltibia 19.9292
lfoot -11.7738 5.39511
ltoes -0.596199
144
root 0.873219 17.8286 -15.5752 7.3735 -1.86374 1.00099
lowerback 5.63711 -0.218572 -1.94549
upperback -0.130313 -0.341223 2.37671
thorax -3.27196 -0.118556 3.58123
lowerneck -17.1086 -4.28485 -10.2435
upperneck 23.8198 -4.39969 4.91696
head 10.8681 -2.34994 2.85682
rclavicle 1.3418e-014 -1.19271e-014
rhumerus -32.0181 -4.17029 -81.8153
rradius 42.5192
rwrist 0.888421
rhand -10.0535 12.3748
rfingers 7.12502
rthumb 15.9321 -16.9899
lclavicle 1.3418e-014 -1.19271e-014
lhumerus -30.4951 5.02738 86.669
lradius 35.6587
lwrist -2.78123
lhand -10.6942 26.9533
lfingers 7.12502
lthumb 15.315 56.3662
rfemur -13.6384 4.56419 19.0755
rtibia 22.9009
rfoot -11.6164 -10.2289
rtoes 6.59356
lfemur -12.3183 -3.75445 -19.6732
ltibia 19.9706
lfoot -11.8181 5.28114
ltoes -0.801488
145
root 0.871565 17.8283 -15.5724 7.35913 -1.89819 0.988855
lowerback 5.68169 -0.202523 -1.94952
upperback -0.171801 -0.319977 2.38053
thorax -3.34157 -0.106215 3.58666
lowerneck -17.1107 -4.2513 -10.2393
upperneck 23.9253 -4.35714 4.92013
head 10.9038 -2.33148 2.86513
rclavicle -6.06293e-015 -5.56597e-015
rhumerus -32.0264 -4.06548 -81.845
rradius 42.5753
rwrist 0.822795
rhand -9.99291 12.3515
rfingers 7.12502
rthumb 15.9905 -17.0085
lclavicle -6.06293e-015 -5.56597e-015
lhumerus -30.5657 4.72503 86.7946
lradius 35.6091
lwrist -1.82903
lhand -11.8814 25.2978
lfingers 7.12502
lthumb 14.1713 54.7945
rfemur -13.63 4.72843 19.0907
rtibia 22.922
rfoot -11.5545 -10.3366
rtoes 6.62966
lfemur -12.2943 -3.76722 -19.652
ltibia 19.9965
lfoot -11.8611 5.30848
ltoes -0.692374
146
root 0.871525 17.826 -15.5684 7.34878 -1.97671 0.992614
lowerback 5.61424 -0.178041 -1.9868
upperback -0.14011 -0.288794 2.40167
thorax -3.273 -0.0914106 3.62614
lowerneck -17.0872 -4.26614 -10.3022
upperneck 23.9152 -4.3686 4.94397
head 10.8989 -2.33971 2.88272
rclavicle -7.95139e-016 3.97569e-015
rhumerus -31.9346 -3.98084 -81.8451
rradius 42.5969
rwrist 0.800133
rhand -9.87707 12.6991
rfingers 7.12502
rthumb 16.102 -16.6519
lclavicle -7.95139e-016 3.97569e-015
lhumerus -30.5053 4.96345 86.7027
lradius 35.8149
lwrist -3.00388
lhand -12.3172 23.9973
lfingers 7.12502
lthumb 13.7514 53.5229
rfemur -13.6238 4.80639 19.0744
rtibia 22.9531
rfoot -11.5358 -10.2252
rtoes 7.1558
lfemur -12.3197 -3.65012 -19.6884
ltibia 20.0573
lfoot -11.8829 5.36511
ltoes -1.22095
147
root 0.872207 17.8233 -15.564 7.33402 -1.98133 1.0214
lowerback 5.55167 -0.177539 -1.99087
upperback -0.0764102 -0.288712 2.39197
thorax -3.17193 -0.093866 3.61705
lowerneck -17.1285 -4.29941 -10.371
upperneck 23.8684 -4.40896 5.01588
head 10.8967 -2.35434 2.91344
rclavicle 4.57205e-015 9.54166e-015
rhumerus -31.8939 -3.88552 -81.8863
rradius 42.8034
rwrist 0.790403
rhand -9.83644 13.0125
rfingers 7.12502
rthumb 16.1411 -16.3353
lclavicle 4.57205e-015 9.54166e-015
lhumerus -30.3899 5.05267 86.6446
lradius 35.9106
lwrist -3.74601
lhand -17.5356 17.3879
lfingers 7.12502
lthumb 8.71854 47.1878
rfemur -13.615 4.7651 19.0427
rtibia 23.0049
rfoot -11.5445 -10.1441
rtoes 7.78325
lfemur -12.3196 -3.61412 -19.7406
ltibia 20.1174
lfoot -11.9103 5.41588
ltoes -1.86145
148
root 0.869473 17.8215 -15.5629 7.31592 -1.98939 1.01324
lowerback 5.69846 -0.155167 -2.00065
upperback -0.141182 -0.260167 2.39619
thorax -3.32366 -0.0761176 3.62682
lowerneck -17.025 -4.28305 -10.4189
upperneck 23.8221 -4.40371 5.09446
head 10.8619 -2.34761 2.95152
rclavicle 3.97569e-015 -1.51076e-014
rhumerus -32.016 -3.7508 -81.9168
rradius 43.0626
rwrist 0.753001
rhand -9.87426 12.5968
rfingers 7.12502
rthumb 16.1047 -16.754
lclavicle 3.97569e-015 -1.51076e-014
lhumerus -30.5415 4.58027 86.8732
lradius 35.8475
lwrist -2.15113
lhand -14.4094 22.3334
lfingers 7.12502
lthumb 11.7344 51.9847
rfemur -13.6207 4.83457 19.0682
rtibia 23.0671
rfoot -11.5778 -10.2623
rtoes 7.48659
lfemur -12.2923 -3.53711 -19.7208
ltibia 20.1499
lfoot -11.9678 5.3344
ltoes -1.62891
149
root 0.869116 17.822 -15.561 7.29982 -1.92406 0.993097
lowerback 5.89057 -0.156625 -2.00118
upperback -0.263563 -0.261393 2.43651
thorax -3.55831 -0.0708757 3.67254
lowerneck -16.7789 -4.20543 -10.4434
upperneck 23.7444 -4.31261 5.09396
head 10.778 -2.31064 2.97045
rclavicle 8.05078e-015 6.36111e-015
rhumerus -32.1347 -3.60388 -81.8719
rradius 43.1812
rwrist 0.682529
rhand -10.0375 12.2106
rfingers 7.12502
rthumb 15.9476 -17.1529
lclavicle 8.05078e-015 6.36111e-015
lhumerus -30.7423 4.38129 86.9999
lradius 35.9766
lwrist -1.7429
lhand -14.7074 22.9624
lfingers 7.12502
lthumb 11.4469 52.6299
rfemur -13.6104 4.76584 19.1133
rtibia 23.1092
rfoot -11.6454 -10.36
rtoes 6.63674
lfemur -12.2871 -3.55112 -19.6768
ltibia 20.1709
lfoot -11.9908 5.2307
ltoes -1.335
150
root 0.869301 17.8207 -15.5561 7.27582 -1.94945 1.0583
lowerback 5.88192 -0.129785 -2.08055
upperback -0.239627 -0.231138 2.44062
thorax -3.53077 -0.0550916 3.71884
lowerneck -16.9434 -4.2022 -10.4042
upperneck 23.873 -4.26801 4.96167
head 10.8499 -2.30229 2.92222
rclavicle -1.59028e-014 -7.15625e-015
rhumerus -32.014 -3.50806 -81.8617
rradius 43.2361
rwrist 0.589069
rhand -10.195 12.0789
rfingers 7.12502
rthumb 15.7958 -17.2967
lclavicle -1.59028e-014 -7.15625e-015
lhumerus -30.6554 4.65939 86.8553
lradius 36.2678
lwrist -3.64241
lhand -15.8159 20.8533
lfingers 7.12502
lthumb 10.3777 50.5772
rfemur -13.6133 4.72981 19.0392
rtibia 23.1647
rfoot -11.7144 -10.33
rtoes 6.30477
lfemur -12.2913 -3.54516 -19.7587
ltibia 20.2035
lfoot -11.9265 5.22072
ltoes -0.805084
151
root 0.868449 17.8173 -15.549 7.22546 -2.06675 0.967875
lowerback 5.83291 -0.0710823 -2.00906
upperback -0.180556 -0.147222 2.46181
thorax -3.44876 -0.0165872 3.69207
lowerneck -17.1091 -4.28746 -10.3575
upperneck 24.0057 -4.36852 4.8935
head 10.9378 -2.35176 2.87435
rclavicle -5.46658e-015 3.18055e-015
rhumerus -31.9637 -3.41374 -81.9027
rradius 43.4981
rwrist 0.507516
rhand -9.99152 11.8037
rfingers 7.12502
rthumb 15.9918 -17.5563
lclavicle -5.46658e-015 3.18055e-015
lhumerus -30.5989 4.79859 86.7546
lradius 36.5049
lwrist -4.72566
lhand -16.4022 18.9428
lfingers 7.12502
lthumb 9.81217 48.6942
rfemur -13.5928 4.87638 19.1335
rtibia 23.2463
rfoot -11.7366 -10.3339
rtoes 6.38806
lfemur -12.2454 -3.45677 -19.6802
ltibia 20.2451
lfoot -11.859 5.27589
ltoes -0.395796
152
root 0.86775 17.8122 -15.5433 7.21447 -2.1336 0.918401
lowerback 5.81508 -0.060015 -2.0132
upperback -0.198536 -0.130675 2.51178
thorax -3.45864 -0.00743299 3.7451
lowerneck -16.9412 -4.27393 -10.4244
upperneck 23.9231 -4.36739 4.96804
head 10.8779 -2.34942 2.91367
rclavicle -8.74653e-015 1.11319e-014
rhumerus -32.0077 -3.21609 -81.9488
rradius 43.7788
rwrist 0.541756
rhand -9.79883 11.6986
rfingers 7.12502
rthumb 16.1774 -17.6464
lclavicle -8.74653e-015 1.11319e-014
lhumerus -30.7387 4.81142 86.7889
lradius 36.7622
lwrist -4.625
lhand -16.4928 18.2745
lfingers 7.12502
lthumb 9.72471 48.03
rfemur -13.5979 4.96396 19.1859
rtibia 23.3138
rfoot -11.807 -10.3491
rtoes 6.64103
lfemur -12.2011 -3.4373 -19.6208
ltibia 20.3054
lfoot -11.9361 5.28729
ltoes -0.781045
